<svg width="28" height="29" viewBox="0 0 28 29" fill="none" xmlns="http://www.w3.org/2000/svg">
<g clip-path="url(#clip0_215_344)">
<path d="M0 2.5055C0 1.39775 0.9205 0.5 2.05625 0.5H25.9438C27.0795 0.5 28 1.39775 28 2.5055V26.4945C28 27.6023 27.0795 28.5 25.9438 28.5H2.05625C0.9205 28.5 0 27.6023 0 26.4945V2.5055ZM8.65025 23.9395V11.2958H4.4485V23.9395H8.65025ZM6.55025 9.5685C8.015 9.5685 8.92675 8.599 8.92675 7.3845C8.9005 6.14375 8.01675 5.2005 6.57825 5.2005C5.13975 5.2005 4.2 6.1455 4.2 7.3845C4.2 8.599 5.11175 9.5685 6.52225 9.5685H6.55025ZM15.1392 23.9395V16.8783C15.1392 16.5002 15.1672 16.1222 15.2793 15.8527C15.582 15.0985 16.2733 14.3162 17.4353 14.3162C18.956 14.3162 19.5632 15.4748 19.5632 17.1758V23.9395H23.765V16.6875C23.765 12.8025 21.693 10.9965 18.928 10.9965C16.6985 10.9965 15.6993 12.2215 15.1392 13.0842V13.128H15.1112L15.1392 13.0842V11.2958H10.9392C10.9917 12.4823 10.9392 23.9395 10.9392 23.9395H15.1392Z" fill="url(#paint0_linear_215_344)"/>
</g>
<defs>
<linearGradient id="paint0_linear_215_344" x1="8.86619e-07" y1="-5.43892e-07" x2="28" y2="28" gradientUnits="userSpaceOnUse">
<stop stop-color="#3EA6E2"/>
<stop offset="1" stop-color="#0D6AD8"/>
</linearGradient>
<clipPath id="clip0_215_344">
<rect width="28" height="28" fill="white" transform="translate(0 0.5)"/>
</clipPath>
</defs>
</svg>
